{"title":"The.Giver.2014.720.BRRiP.X264.AC3.CrEwSaDe","uid":11412679,"size":2215179485,"categoryP":"video","categoryS":"hd___movies","magnet":"?xt=urn:btih:a9204ca4b3b52f75a54b6f49c195716485fce339&amp;dn=The.Giver.2014.720.BRRiP.X264.AC3.CrEwSaDe&amp;tr=udp%3A%2F%2Ftracker.openbittorrent.com%3A80&amp;tr=udp%3A%2F%2Fopen.demonii.com%3A1337&amp;tr=udp%3A%2F%2Ftracker.coppersurfer.tk%3A6969&amp;tr=udp%3A%2F%2Fexodus.desync.com%3A6969","seeders":1,"leechers":0,"uploader":"TvTeam","files":4,"time":1415546428,"description":" &lt;a href=&quot;http://www.torrenting.com&quot; rel=&quot;nofollow&quot; target=&quot;_NEW&quot;&gt;http://www.torrenting.com&lt;/a&gt;\n\nSign up is OPEN - for time being. Come and have fun.\n\n\n------------------------------------------------------------------------\n                                 [color=yellow]Release Brought to you by CrEwSaDe[/color]\n                              \n\n[color=red]Poster[/color]\n\n\n[IMG]http://i.imgur.com/V72gwGl.jpg[/IMG]\n\n\n[color=blue]\n******************************************************************************************************           \n\n                     **[/color] [color=yellow]The.Giver.2014.720.BRRiP.X264.AC3.CrEwSaDe[/color] [color=blue]**\n\n******************************************************************************************************[/color]\n\n\n\n[IMG]http://i.imgur.com/mSjwXjs.gif[/IMG]\n\n                                                  \nVideo Codec.......: V_MPEG4/ISO/AVC\nVideo Bitrate.....: 2 551 Kbps                         \nAudio Codec.......: A_AC3                         \nAudio Bitrate.....: 448 Kbps                         \nResolution........: 1 280 pixels x 536 pixels\nRuntime...........: 1h 37mn                        \nRelease Date......: 09/11/2014\nTheatre Date......: 19 September 2014 (UK)\nLanguage..........: English\nSubtitles.........: Nope\nIMDB Rating.......: 6.6\nIMDb URL..........: http://www.imdb.com/title/tt0435651\nGENRE.............: Drama | Sci-Fi\n\n\n[color=blue]_______________________________________________________________________________[/color]\n\n\n[IMG]http://i.imgur.com/9Z7M0r7.gif[/IMG]\n\nUnique ID                                : 200436448024150275416464015291060984288 (0x96CAA7DD3DE9B7E9AAFAD75B206A19E0)\nComplete name                            : C:UsersAdminDesktopThe.Giver.2014.720.BRRiP.X264.AC3.CrEwSaDeThe.Giver.2014.720.BRRiP.X264.AC3.CrEwSaDe.mkv\nFormat                                   : Matroska\nFormat version                           : Version 2\nFile size                                : 2.04 GiB\nDuration                                 : 1h 37mn\nOverall bit rate                         : 2 998 Kbps\nEncoded date                             : UTC 2014-11-09 08:32:39\nWriting application                      : mkvmerge v7.0.0 ('Where We Going') 32bit built on Jun  9 2014 15:08:34\nWriting library                          : libebml v1.3.0 + libmatroska v1.4.1\nDURATION                                 : 01:37:17.888000000\nNUMBER_OF_FRAMES                         : 182434\nNUMBER_OF_BYTES                          : 326921728\n_STATISTICS_WRITING_APP                  : mkvmerge v7.0.0 ('Where We Going') 32bit built on Jun  9 2014 15:08:34\n_STATISTICS_WRITING_DATE_UTC             : 2014-11-09 08:32:39\n_STATISTICS_TAGS                         : BPS DURATION NUMBER_OF_FRAMES NUMBER_OF_BYTES\n\n\n\n[color=blue]________________________________________________________________________________[/color]\n\n\n[IMG]http://i.imgur.com/tDE5iOF.gif[/IMG]\n\nID                                       : 1\nFormat                                   : AVC\nFormat/Info                              : Advanced Video Codec\nFormat profile                           : &lt;a class=&quot;__cf_email__&quot; href=&quot;/cdn-cgi/l/email-protection&quot; data-cfemail=&quot;420a2b252a020e716c73&quot;&gt;[email&amp;#160;protected]&lt;/a&gt;&lt;script cf-hash='f9e31' type=&quot;text/javascript&quot;&gt;\n/* &lt;![CDATA[ */!function(){try{var t=&quot;currentScript&quot;in document?document.currentScript:function(){for(var t=document.getElementsByTagName(&quot;script&quot;),e=t.length;e--;)if(t[e].getAttribute(&quot;cf-hash&quot;))return t[e]}();if(t&amp;&amp;t.previousSibling){var e,r,n,i,c=t.previousSibling,a=c.getAttribute(&quot;data-cfemail&quot;);if(a){for(e=&quot;&quot;,r=parseInt(a.substr(0,2),16),n=2;a.length-n;n+=2)i=parseInt(a.substr(n,2),16)^r,e+=String.fromCharCode(i);e=document.createTextNode(e),c.parentNode.replaceChild(e,c)}}}catch(u){}}();/* ]]&gt; */&lt;/script&gt;\nFormat settings, CABAC                   : Yes\nFormat settings, ReFrames                : 4 frames\nCodec ID                                 : V_MPEG4/ISO/AVC\nDuration                                 : 1h 37mn\nBit rate                                 : 2 551 Kbps\nWidth                                    : 1 280 pixels\nHeight                                   : 536 pixels\nDisplay aspect ratio                     : 2.40:1\nFrame rate mode                          : Constant\nFrame rate                               : 23.976 fps\nColor space                              : YUV\nChroma subsampling                       : 4:2:0\nBit depth                                : 8 bits\nScan type                                : Progressive\nBits/(Pixel*Frame)                       : 0.155\nStream size                              : 1.69 GiB (83%)\nWriting library                          : x264 core 142 r2431 ac76440\nID                                       : 1\nFormat                                   : AVC\nFormat/Info                              : Advanced Video Codec\nFormat profile                           : &lt;a class=&quot;__cf_email__&quot; href=&quot;/cdn-cgi/l/email-protection&quot; data-cfemail=&quot;155d7c727d5559263b24&quot;&gt;[email&amp;#160;protected]&lt;/a&gt;&lt;script cf-hash='f9e31' type=&quot;text/javascript&quot;&gt;\n/* &lt;![CDATA[ */!function(){try{var t=&quot;currentScript&quot;in document?document.currentScript:function(){for(var t=document.getElementsByTagName(&quot;script&quot;),e=t.length;e--;)if(t[e].getAttribute(&quot;cf-hash&quot;))return t[e]}();if(t&amp;&amp;t.previousSibling){var e,r,n,i,c=t.previousSibling,a=c.getAttribute(&quot;data-cfemail&quot;);if(a){for(e=&quot;&quot;,r=parseInt(a.substr(0,2),16),n=2;a.length-n;n+=2)i=parseInt(a.substr(n,2),16)^r,e+=String.fromCharCode(i);e=document.createTextNode(e),c.parentNode.replaceChild(e,c)}}}catch(u){}}();/* ]]&gt; */&lt;/script&gt;\nFormat settings, CABAC                   : Yes\nFormat settings, ReFrames                : 4 frames\nCodec ID                                 : V_MPEG4/ISO/AVC\nDuration                                 : 1h 37mn\nBit rate                                 : 2 551 Kbps\nWidth                                    : 1 280 pixels\nHeight                                   : 536 pixels\nDisplay aspect ratio                     : 2.40:1\nFrame rate mode                          : Constant\nFrame rate                               : 23.976 fps\nColor space                              : YUV\nChroma subsampling                       : 4:2:0\nBit depth                                : 8 bits\nScan type                                : Progressive\nBits/(Pixel*Frame)                       : 0.155\nStream size                              : 1.69 GiB (83%)\nWriting library                          : x264 core 142 r2431 ac76440\nDefault                                  : Yes\nForced                                   : No\nDefault                                  : Yes\nForced                                   : No\n\n\n[color=blue]_________________________________________________________________________________[/color]\n\n\n[IMG]http://i.imgur.com/UReNJEI.gif[/IMG]\n\nID                                       : 2\nFormat                                   : AC-3\nFormat/Info                              : Audio Coding 3\nMode extension                           : CM (complete main)\nFormat settings, Endianness              : Big\nCodec ID                                 : A_AC3\nDuration                                 : 1h 37mn\nBit rate mode                            : Constant\nBit rate                                 : 448 Kbps\nChannel(s)                               : 6 channels\nChannel positions                        : Front: L C R, Side: L R, LFE\nSampling rate                            : 48.0 KHz\nBit depth                                : 16 bits\nCompression mode                         : Lossy\nStream size                              : 312 MiB (15%)\nLanguage                                 : English\nDefault                                  : Yes\nForced                                   : No\n              \n\n[color=blue]_________________________________________________________________________________[/color]\n\n\n\n[IMG]http://i.imgur.com/GwKJhbW.gif[/IMG]\n\n\n[color=green]VIDEO: The.Giver.2014.1080p.BluRay.x264-SPARKS Thanks[/color] \n[color=green]AUDIO: The.Giver.2014.1080p.BluRay.x264-SPARKS Thanks[/color] \n\n\n[color=blue]_________________________________________________________________________________[/color]\n\n\n[IMG]http://i.imgur.com/kFUXqwj.gif[/IMG]\n\nIn a seemingly perfect community, without war, pain, suffering, differences or choice, a young boy is chosen to learn from an elderly man about the true pain and pleasure of the &quot;real&quot; world.\n\n\n\n[color=blue]_________________________________________________________________________________[/color]\n\n\n[IMG]http://i.imgur.com/1Wjvkx5.gif[/IMG]\n\nBrenton Thwaites\nJeff Bridges\nMeryl Streep\n  \n\n\n[color=blue]_________________________________________________________________________________[/color] \n\n\n[IMG]http://i.imgur.com/O0UeWPU.gif[/IMG]\n\n[IMG]http://i.imgur.com/IBphSVi.png[/IMG]\n[IMG]http://i.imgur.com/fZHvPoP.png[/IMG]\n[IMG]http://i.imgur.com/mekSQGA.png[/IMG]\n[IMG]http://i.imgur.com/GT2zUdJ.png[/IMG]\n[IMG]http://i.imgur.com/Kw8uwYB.png[/IMG]\n\n\n\n[color=blue]_________________________________________________________________________________[/color]\n\n\n[IMG]http://i.imgur.com/yS1r7oo.gif[/IMG]\n\n\n\n[color=blue]_________________________________________________________________________________[/color]\n\n\n\n[IMG]http://i.imgur.com/9YwlQZv.gif[/IMG]\n\nYes\n\n\n[color=blue]_________________________________________________________________________________[/color]\n\n\n\n[IMG]http://i.imgur.com/JxDWlgB.gif[/IMG]\n\nNothing Here Move Along.......:-)\n\n\n[color=blue]_________________________________________________________________________________[/color]\n\n\n\n[IMG]http://i.imgur.com/GETzsUr.gif[/IMG]\n\nAll our home site staff for getting us such great sources :-) also our friends\n\nLEGiON,JTR,SAFC,jamie111, CrEwSaDe members Past and present, all other p2pgroups past and present, That made all this possible and the present ones that continue to work so hard at what we do \n\n\n[color=blue]__________________________________________________________________________________[/color]\n\n\nWE DONT RELEASE EVERYTHiNG TO OTHERS SiTES YOU WANT MORE OF OUR STUFF COME FiND US AT .......\n\nCrEwSaDe are currently Looking for unreleased DVD's,Screeners,New Music Releases,R5's,Audio,Cams,\nSilvers,syncers,cammers and Any Other Good Sources You May Have To Offer\nContact us @ &lt;a class=&quot;__cf_email__&quot; href=&quot;/cdn-cgi/l/email-protection&quot; data-cfemail=&quot;11526354664270557451796462797c70787d3f727e7c&quot;&gt;[email&amp;#160;protected]&lt;/a&gt;&lt;script cf-hash='f9e31' type=&quot;text/javascript&quot;&gt;\n/* &lt;![CDATA[ */!function(){try{var t=&quot;currentScript&quot;in document?document.currentScript:function(){for(var t=document.getElementsByTagName(&quot;script&quot;),e=t.length;e--;)if(t[e].getAttribute(&quot;cf-hash&quot;))return t[e]}();if(t&amp;&amp;t.previousSibling){var e,r,n,i,c=t.previousSibling,a=c.getAttribute(&quot;data-cfemail&quot;);if(a){for(e=&quot;&quot;,r=parseInt(a.substr(0,2),16),n=2;a.length-n;n+=2)i=parseInt(a.substr(n,2),16)^r,e+=String.fromCharCode(i);e=document.createTextNode(e),c.parentNode.replaceChild(e,c)}}}catch(u){}}();/* ]]&gt; */&lt;/script&gt;\n\n\n\n[IMG]http://i1179.photobucket.com/albums/x394/crewsade/crew1.png[/IMG]","torrent":{"xt":"urn:btih:a9204ca4b3b52f75a54b6f49c195716485fce339","amp;dn":"The.Giver.2014.720.BRRiP.X264.AC3.CrEwSaDe","amp;tr":["udp%3A%2F%2Ftracker.openbittorrent.com%3A80","udp%3A%2F%2Fopen.demonii.com%3A1337","udp%3A%2F%2Ftracker.coppersurfer.tk%3A6969","udp%3A%2F%2Fexodus.desync.com%3A6969"],"infoHash":"a9204ca4b3b52f75a54b6f49c195716485fce339","infoHashBuffer":{"type":"Buffer","data":[169,32,76,164,179,181,47,117,165,75,111,73,193,149,113,100,133,252,227,57]},"announce":[],"urlList":[]}}